<svg width="32" height="32" viewBox="0 0 32 32" fill="none" xmlns="http://www.w3.org/2000/svg">
<path d="M4.10049 12.2671H14.0483C14.4813 12.2671 14.8324 12.6183 14.8324 13.0512V19.3692C14.8324 19.8021 14.4813 20.1533 14.0483 20.1533H8.84434L7.26709 21.67L5.6293 20.1533H4.10049C3.66758 20.1533 3.31641 19.8021 3.31641 19.3692V13.0512C3.31641 12.6183 3.66758 12.2671 4.10049 12.2671Z" fill="#8CAAFF"/>
<path d="M7.26709 21.667L5.6293 20.1503H4.10049C3.66758 20.1503 3.31641 19.7991 3.31641 19.3662V13.0512C3.31641 12.6183 3.66758 12.2671 4.10049 12.2671H14.0514C14.4843 12.2671 14.8354 12.6183 14.8354 13.0512V19.3692C14.8354 19.8021 14.4843 20.1533 14.0514 20.1533H8.84736L7.26709 21.667ZM4.49102 18.9757H6.08945L7.25195 20.0504L8.37207 18.9757H13.6578V13.4417H4.49102V18.9757Z" fill="#333333"/>
<path d="M10.2363 8.61035H25.6425C26.0754 8.61035 26.4266 8.96152 26.4266 9.39443V21.4735C26.4266 21.9064 26.0754 22.2576 25.6425 22.2576H20.2841L18.1801 24.2799L15.9943 22.2576H10.2333C9.80039 22.2576 9.44922 21.9064 9.44922 21.4735V9.39443C9.45225 8.96152 9.80342 8.61035 10.2363 8.61035Z" fill="white"/>
<path d="M18.192 25.3575L15.6914 23.0416H10.2361C9.37334 23.0416 8.66797 22.3393 8.66797 21.4734V9.39434C8.66797 8.53154 9.37031 7.82617 10.2361 7.82617H25.6423C26.5051 7.82617 27.2104 8.52852 27.2104 9.39434V21.4734C27.2104 22.3362 26.5081 23.0416 25.6423 23.0416H20.5987L18.192 25.3575ZM10.2361 9.39434V21.4734H16.3029L18.1708 23.2021L19.969 21.4734H25.6423V9.39434H10.2361Z" fill="#333333"/>
<path d="M19.9405 15.9243H18.1181L18.112 16.2543C18.1029 16.6812 17.7548 17.0232 17.3279 17.0232H17.3249C16.9071 17.0232 16.5681 16.6842 16.5681 16.2664V16.2513L16.5893 15.1281C16.5983 14.7104 16.9313 14.3743 17.3431 14.3592C17.3673 14.3562 17.3915 14.3562 17.4157 14.3562H19.1504V12.9212H16.2411C15.8082 12.9212 15.457 12.57 15.457 12.1371C15.457 11.7042 15.8082 11.353 16.2411 11.353H19.9345C20.3674 11.353 20.7186 11.7042 20.7186 12.1371V15.1402C20.7186 15.5701 20.3704 15.9183 19.9405 15.9243ZM16.5408 18.8336V18.7549C16.5408 18.322 16.892 17.9708 17.3249 17.9708C17.7578 17.9708 18.109 18.322 18.109 18.7549V18.8336C18.109 19.2665 17.7578 19.6177 17.3249 19.6177C16.892 19.6177 16.5408 19.2665 16.5408 18.8336Z" fill="#333333"/>
</svg>
